<?xml version="1.0" encoding="UTF-8"?>
<svg xmlns="http://www.w3.org/2000/svg" xmlns:xlink="http://www.w3.org/1999/xlink" width="2112" height="2112" viewBox="0 0 2112 2112">

<path fill-rule="nonzero" fill="rgb(100%, 0%, 39.988708%)" fill-opacity="1" d="M 1102.578125 542.339844 C 1100.828125 556.339844 1098.058594 570.410156 1098.289062 584.648438 C 1115.210938 572.980469 1107.371094 550.121094 1109.910156 532.820312 C 1116.671875 554.980469 1137.929688 525.640625 1139.421875 547.5 C 1150.929688 566.589844 1167.171875 516.21875 1175.078125 546.28125 C 1187.269531 537.230469 1197.191406 539.578125 1204.109375 553.28125 C 1212.121094 544.808594 1222.011719 539.421875 1233.179688 536.351562 C 1236.03125 547.210938 1235.929688 558.390625 1234.308594 569.640625 C 1253.339844 551.699219 1276.851562 570.308594 1299.328125 563.890625 C 1298.921875 566.898438 1298.171875 572.808594 1297.851562 575.859375 C 1322.949219 571.121094 1345.128906 586.140625 1367.5 596.359375 C 1362.789062 584.738281 1383.890625 571.910156 1377.851562 589.839844 C 1373.058594 607.800781 1392.890625 604.859375 1401.71875 596.820312 C 1401.699219 614.03125 1421.28125 622.609375 1421.300781 641 C 1424.878906 626.761719 1438.5 621.449219 1449.789062 614.480469 C 1451.960938 629.101562 1435.769531 635.011719 1429.96875 646.640625 C 1433.679688 654.691406 1437.78125 662.671875 1441.460938 670.878906 C 1455.769531 664.519531 1470.109375 638.378906 1476.980469 667.300781 C 1499.328125 671.460938 1506.230469 702.019531 1528.570312 701.640625 C 1525.019531 683.621094 1489.828125 665.171875 1509.421875 650.128906 C 1512.621094 667.171875 1529.480469 658.101562 1541.199219 657.988281 C 1535.910156 663.941406 1528.808594 669.199219 1530.589844 678.441406 C 1538.929688 675.121094 1550.070312 674.789062 1551.789062 664.011719 C 1566.300781 650.820312 1578.210938 673 1586.21875 682.828125 C 1597.261719 699.179688 1557.371094 668.210938 1567.449219 685.351562 C 1573.820312 713.78125 1612.839844 670.640625 1615.558594 700.820312 C 1626.21875 706.738281 1644.769531 725.789062 1627.859375 734.570312 C 1620.738281 719.691406 1610.441406 716.679688 1598.089844 727.929688 C 1603.359375 714.179688 1592.738281 712.269531 1581.371094 711.921875 C 1584.441406 729.78125 1564.378906 718.238281 1554.539062 723.160156 C 1544.488281 723.710938 1543.710938 736.628906 1544.089844 744.378906 C 1563.941406 730.179688 1577.148438 764.488281 1597.171875 769.148438 C 1597.121094 765.628906 1596.96875 758.761719 1596.859375 755.320312 C 1626.5 761.839844 1590.039062 774.289062 1595.28125 790.359375 C 1615.671875 782.011719 1616.679688 757.328125 1635.488281 747.160156 C 1637.351562 759.480469 1633.078125 772.269531 1623.570312 780.398438 C 1618.839844 793.199219 1645.949219 810.46875 1622.140625 814.03125 C 1560 836.210938 1496.101562 856.671875 1431.109375 868.519531 C 1420.109375 867.890625 1405.871094 873.089844 1401.210938 859.578125 C 1370.171875 874.078125 1328.980469 878.300781 1299.488281 860.53125 C 1278.761719 868.621094 1269.871094 840.761719 1250.859375 844.078125 C 1244.730469 855.820312 1224.699219 868.480469 1220.269531 848.371094 C 1205.371094 855.25 1196.511719 873.160156 1176.640625 867.78125 C 1146.960938 887.949219 1118.238281 913.671875 1091.289062 938.539062 C 1084.878906 946.820312 1073.789062 941.679688 1065.058594 943.109375 C 1064.261719 973.339844 1028.308594 947 1011.089844 949.101562 C 964.765625 1000.570312 891.765625 1011.558594 830.269531 1035.878906 C 808.65625 1054.320312 785.480469 1072.601562 755.128906 1072.171875 C 746.0625 1096.738281 708.191406 1107.550781 716.492188 1138.070312 C 708.324219 1183.660156 667.25 1214.839844 629.703125 1237.9375 C 606.773438 1232.160156 652.128906 1195.328125 622.484375 1196.59375 C 603.773438 1189.433594 591.644531 1204.054688 584.382812 1219.160156 C 603.773438 1221.773438 596.222656 1226.023438 581.523438 1229.980469 C 589.929688 1266.023438 556.511719 1290.640625 536.226562 1315.453125 C 525.109375 1332.503906 498.488281 1310.476562 487.800781 1329.664062 C 481.964844 1340.410156 469.859375 1339.953125 459.15625 1340.699219 C 448.613281 1356.777344 428.148438 1352.117188 412.605469 1359.414062 C 419.265625 1339.683594 436.628906 1323.511719 436.394531 1301.730469 C 422.410156 1311.945312 395.886719 1321.042969 392.195312 1296.210938 C 403.351562 1295.730469 421.4375 1310.664062 425.65625 1294.207031 C 429.128906 1276.808594 407.824219 1279.117188 396.78125 1279.390625 C 396.550781 1271.445312 385.824219 1256.375 397.734375 1253.488281 C 414.503906 1251.390625 408.054688 1223.074219 428.109375 1231.984375 C 415.066406 1209.605469 419.589844 1182.515625 439.851562 1166.445312 C 432.609375 1155.453125 423.390625 1145.960938 416.371094 1134.878906 C 434.769531 1119.382812 434.25 1094.5 446.222656 1075.328125 C 446.15625 1067.210938 433.675781 1054.628906 444.722656 1050.789062 C 458.664062 1048.878906 431.78125 1030.820312 445.949219 1032.621094 C 456.820312 1035.730469 454.839844 1021.25 459.136719 1015.199219 C 465.867188 1015.378906 472.527344 1015.679688 479.179688 1015.890625 C 473.925781 1010.519531 468.1875 1005.769531 462.796875 1000.648438 C 479.5 997.46875 470.398438 980.949219 470.484375 969.691406 C 477.636719 972.558594 484.730469 976.128906 491.984375 979.089844 C 478.949219 965.039062 480.878906 936.019531 501.34375 931.898438 C 514.746094 927.121094 501.867188 916.019531 499.144531 908.011719 C 510.460938 905.648438 521.917969 905.839844 533.234375 906.808594 C 528.152344 896.511719 516.289062 891.191406 512.785156 879.910156 C 522.921875 875.421875 532.90625 870.75 541.425781 863.53125 C 538.488281 838.058594 560.101562 821.539062 576.886719 806.378906 C 584.257812 785.800781 606.382812 781.550781 606.058594 758.289062 C 621.523438 761.621094 626.136719 751.140625 629.03125 737.878906 C 651.355469 746.480469 652.164062 714.160156 672.296875 719.148438 C 669.210938 713.378906 666.058594 707.789062 662.765625 702.429688 C 670.972656 701.808594 682.929688 706.808594 683.421875 694.449219 C 713.34375 688.519531 747.035156 686.171875 768.5 661.351562 C 777.078125 664.730469 784.863281 676.789062 794.746094 670.960938 C 805.597656 663.039062 814.71875 680.140625 825.535156 672.289062 C 836.960938 664.308594 839.695312 684.550781 846.640625 690.511719 C 859.988281 681.679688 882.628906 670.171875 857.78125 646.820312 C 862.132812 648.429688 875.390625 668.050781 871.121094 652.519531 C 860.605469 623.699219 897.480469 616.921875 903.464844 593.550781 C 913.003906 589.078125 922.011719 589.878906 928.214844 599.199219 C 926.949219 584.78125 922.820312 567.378906 933.113281 555.328125 C 938.3125 561.488281 933.984375 586.390625 944.957031 580.539062 C 934.382812 552.390625 969.535156 565.191406 984.230469 555.488281 C 998.214844 551.628906 1012.261719 534.070312 1026.769531 545.390625 C 1041.550781 551.769531 1053.441406 528.371094 1057.148438 526.710938 C 1069.371094 539.621094 1075.328125 564.878906 1102.578125 542.339844 Z M 1062.890625 612.808594 C 1074.371094 600.988281 1081.390625 582.761719 1081.261719 566.21875 C 1069.148438 578.761719 1054.269531 594.011719 1062.890625 612.808594 Z M 737.324219 768.648438 C 739.464844 785.550781 757.992188 790.921875 771.074219 797.53125 C 769.855469 782.160156 754.007812 777.269531 742.523438 770.730469 Z M 881.433594 767.238281 C 892.964844 765.71875 895.945312 748.378906 882.703125 746.679688 C 868.003906 742.109375 868.019531 768.589844 881.433594 767.238281 Z M 645.96875 795.109375 C 685.058594 826.058594 718.660156 865.441406 767.8125 880.691406 C 766.996094 863.148438 745.523438 860.378906 734.605469 852.191406 C 704.488281 839.578125 686.503906 809.929688 658.59375 794.070312 C 655.480469 794.328125 649.160156 794.75 645.96875 795.109375 Z M 792.53125 771.230469 C 798.980469 789.320312 822.574219 797.101562 821.058594 818.859375 C 831.238281 826.800781 832.691406 849.261719 849.214844 842.589844 C 844.558594 831.921875 838.386719 821.78125 835.449219 810.589844 C 848.390625 806.511719 857.386719 817.539062 867.796875 823.199219 C 882.613281 816.929688 921.902344 819.128906 907.734375 797.070312 C 893.625 786.03125 874.757812 800.230469 859.730469 791.410156 C 841.804688 783.679688 824.839844 772.730469 804.890625 771.53125 C 801.855469 771.46875 795.683594 771.359375 792.53125 771.230469 Z M 1103.339844 777.390625 C 1100.429688 758.949219 1097.050781 740.519531 1092.800781 722.550781 C 1083.261719 735.300781 1084.410156 767.941406 1103.339844 777.390625 Z M 1165.210938 770.558594 C 1179.601562 762.488281 1174.46875 747.148438 1170.980469 734.21875 C 1147.480469 731.941406 1164.539062 757.839844 1165.210938 770.558594 Z M 983.652344 829.121094 C 981.535156 815.078125 978.894531 801.449219 975.535156 787.949219 C 967.089844 798.148438 962.808594 828.109375 983.652344 829.121094 Z M 1255.929688 814.058594 C 1252.171875 792.421875 1248.539062 773.140625 1243.230469 752.460938 C 1229.691406 769.820312 1230.441406 808.898438 1255.929688 814.058594 Z M 927.796875 826.671875 C 929.226562 849.488281 950.339844 823.210938 951.609375 815.761719 C 943.304688 813.269531 927.753906 815.269531 927.796875 826.671875 Z M 893.765625 826.230469 C 893.175781 848.609375 917.09375 834.109375 926.398438 847.609375 C 923.804688 838.269531 923.496094 826.769531 912.664062 823.371094 C 907.957031 824.058594 898.585938 825.511719 893.765625 826.230469 Z M 1525.921875 708.589844 C 1532.949219 720.21875 1522.601562 731.308594 1523.5 743.71875 C 1532.460938 730.25 1552.488281 721.210938 1550.628906 703.441406 C 1542.390625 704.609375 1534.171875 706.320312 1525.921875 708.589844 Z M 790.898438 860.75 C 811.839844 897.460938 827.164062 937.421875 850.21875 973.089844 C 852.675781 970.589844 857.671875 965.539062 860.128906 963.039062 C 841.699219 928.148438 826.847656 888.089844 796.316406 862.699219 Z M 883.132812 877.25 C 869.972656 880.101562 864.625 865.828125 854.796875 860.339844 C 862.351562 887.039062 854.007812 917 870.957031 941 C 886.859375 942.550781 890.09375 928.769531 893.476562 916.671875 C 901.757812 914.050781 910.210938 911.980469 918.769531 910.5 C 913.675781 921.96875 906.539062 933.679688 912.054688 946.621094 C 930.320312 946.378906 934.671875 922.058594 926.96875 908.878906 C 947.351562 900.269531 955.929688 910.289062 952.964844 938.878906 C 987.03125 922.660156 964.945312 879.539062 961.1875 852.449219 C 944.308594 861.421875 955.980469 875.558594 962 887.800781 C 945.800781 883.089844 931.539062 869.441406 912.550781 883.480469 C 915.71875 876.308594 919.460938 869.519531 922.484375 862.398438 C 913.457031 863.789062 904.511719 865.148438 895.429688 866.558594 C 895.765625 859.589844 896.234375 852.800781 897.011719 846.078125 C 874.574219 844.058594 879.925781 861.648438 883.132812 877.25 Z M 1053.550781 862.660156 C 1071.109375 853.160156 1061.328125 833.820312 1050.019531 823.628906 C 1038.628906 821.53125 1053.261719 852.210938 1053.550781 862.660156 Z M 999.9375 837.480469 C 1002.730469 864.238281 1013.738281 889.421875 1022.808594 914.410156 C 1031.269531 909.96875 1040.429688 908.261719 1049.988281 909.148438 C 1047.839844 894.570312 1026.5 901.199219 1024.238281 888.421875 C 1019.171875 878.570312 1028.699219 872.910156 1034.148438 866.910156 C 1028.929688 867.609375 1018.511719 868.988281 1013.238281 869.679688 C 1022.320312 855.878906 1023.859375 843.75 1005.03125 839.800781 Z M 1315.058594 861.261719 C 1326.128906 861.328125 1337.050781 862.730469 1347.96875 862.089844 C 1350.351562 852.269531 1364.378906 833.21875 1348.21875 830.441406 C 1332.691406 836.550781 1313.429688 840.609375 1315.058594 861.261719 Z M 627.972656 1004.921875 C 636.097656 1022.960938 652.828125 1038.238281 671.300781 1045.691406 C 670.113281 1025.011719 647.746094 1017.660156 633.367188 1006.96875 Z M 711.644531 1007.910156 C 714.71875 1027.210938 726.839844 1057.53125 748.9375 1056.898438 C 734.035156 1043.78125 732.832031 1020.371094 716.964844 1009.941406 Z M 438.027344 1120.992188 C 451.21875 1130.050781 472.621094 1141.558594 480.601562 1120.359375 C 472.898438 1120.078125 465.148438 1119.792969 457.289062 1119.660156 C 452.503906 1120.050781 442.871094 1120.675781 438.027344 1120.992188 Z M 665.875 1120.140625 C 637.089844 1121.976562 675.835938 1168.414062 681.253906 1137.078125 C 695.820312 1114.589844 665.132812 1103.519531 647.234375 1099.921875 C 632.015625 1097.628906 661.28125 1114.054688 665.875 1120.140625 Z M 624.9375 1191.214844 C 641.90625 1183.171875 659.132812 1176.300781 675.46875 1167.152344 C 668.941406 1159.871094 661.960938 1153.25 655.386719 1146.226562 C 635.042969 1147.398438 626.867188 1173.609375 624.9375 1191.214844 Z M 471.832031 1217.027344 C 487.242188 1216.292969 509.757812 1210.261719 501.796875 1189.949219 C 488.984375 1194.648438 475.535156 1202.953125 471.832031 1217.027344 Z M 514.667969 1213.847656 C 527.09375 1227.527344 570.710938 1201.925781 541.527344 1189.703125 C 531.703125 1196.113281 504.390625 1197.628906 514.667969 1213.847656 Z M 514.441406 1284.429688 C 512.40625 1275.136719 511.738281 1263.859375 501.375 1260.273438 C 481.082031 1265.496094 496.996094 1294.273438 514.441406 1284.429688 "/>
<path fill-rule="nonzero" fill="rgb(100%, 0%, 39.988708%)" fill-opacity="1" d="M 1535.691406 917.671875 C 1543.058594 933.199219 1556.339844 918.628906 1557.339844 907.5 C 1558.898438 912.839844 1562.089844 923.371094 1563.691406 928.699219 C 1564.890625 909.949219 1585.511719 905.800781 1596.871094 919.109375 C 1605.871094 932.351562 1621.289062 909.460938 1626.75 926.859375 C 1643.488281 931.019531 1656.25 907.53125 1671.988281 917.539062 C 1686.671875 926.179688 1703.96875 919.898438 1719.878906 923.140625 C 1715.230469 947.269531 1701.320312 967.878906 1691.679688 990.421875 C 1672.539062 998.28125 1658.921875 975.808594 1640.410156 973.371094 C 1646.269531 990.550781 1666.929688 997.570312 1670.828125 1016.050781 C 1656.101562 1019.359375 1645.660156 1006.460938 1632.800781 1002.289062 C 1638.609375 1018.089844 1654.339844 1028.808594 1656.371094 1046.390625 C 1636 1056.191406 1638.300781 1019.199219 1618.570312 1025.699219 C 1628.210938 1042.640625 1634.601562 1058.121094 1634.980469 1079.429688 C 1621.269531 1067.679688 1608.039062 1055.570312 1593.691406 1044.570312 C 1591.730469 1069.980469 1626.570312 1069.359375 1625.058594 1094.71875 C 1616.898438 1089.039062 1610.078125 1081.128906 1600.699219 1077.53125 C 1603.730469 1084.441406 1606.980469 1091.210938 1610.441406 1098.070312 C 1594.53125 1101.238281 1591.550781 1075.269531 1574.890625 1083.609375 C 1576.898438 1095.628906 1580.878906 1119.957031 1582.789062 1132.054688 C 1572.371094 1124.164062 1566.089844 1104.488281 1553.320312 1103.628906 C 1549.140625 1124.292969 1530.730469 1138.339844 1512.738281 1147.242188 C 1515.761719 1156.488281 1521.691406 1175.195312 1524.730469 1184.527344 C 1505.640625 1187.628906 1505.03125 1158.035156 1486.261719 1156.546875 C 1488.71875 1164.757812 1492.171875 1172.765625 1494.828125 1181.035156 C 1489.320312 1190.21875 1478.921875 1197.253906 1476.628906 1208.195312 C 1480.921875 1218.765625 1487.011719 1228.699219 1489.960938 1239.949219 C 1477.578125 1235.53125 1467.460938 1223.644531 1453.300781 1225.511719 C 1485.390625 1273.988281 1449.699219 1251.261719 1433.03125 1258.40625 C 1426.5 1266.605469 1429.101562 1276.933594 1429.109375 1286.707031 C 1420 1277.980469 1411.160156 1268.417969 1398.78125 1264.246094 C 1402.058594 1276.664062 1419.160156 1292.25 1405.128906 1303.453125 C 1391.089844 1302.5625 1380.160156 1309.796875 1369.359375 1318.007812 C 1363.511719 1312.570312 1358.238281 1306.730469 1352.378906 1301.5 C 1351.890625 1312.460938 1361.050781 1327.425781 1348.609375 1334.625 C 1336.628906 1340.390625 1342.628906 1353.523438 1342.269531 1363.964844 C 1315.640625 1366.792969 1308.21875 1404.046875 1287.078125 1419.523438 C 1285.460938 1414.347656 1282.109375 1403.945312 1280.328125 1398.757812 C 1275.128906 1410.652344 1274.28125 1424.179688 1267.070312 1435.339844 C 1250.851562 1452.214844 1225.121094 1449.007812 1203.511719 1449.289062 C 1203.628906 1439.632812 1206.710938 1424.21875 1192.101562 1425.464844 C 1179.96875 1439.410156 1206.890625 1471.941406 1180.300781 1468.351562 C 1168.71875 1454.898438 1160.101562 1438.78125 1145.609375 1428.011719 C 1143.058594 1440.058594 1141.359375 1452.609375 1136.011719 1464.046875 C 1125.871094 1467.84375 1117.289062 1458.328125 1107.851562 1456.324219 C 1098.488281 1462.835938 1095.339844 1475.746094 1085.101562 1481.40625 C 1066.21875 1497.4375 1039.910156 1489.023438 1023.679688 1509.179688 C 1022.050781 1504.003906 1019.121094 1493.757812 1017.628906 1488.714844 C 1007.121094 1494.675781 1020.441406 1517.6875 1003.820312 1519.566406 C 986.921875 1530.632812 955.789062 1484.234375 960.535156 1514.894531 C 944.058594 1510.796875 949.265625 1488.171875 946.597656 1475.378906 C 947.238281 1502.285156 908.636719 1478.179688 911.765625 1504.378906 C 909.695312 1510.902344 932.058594 1521.820312 925.972656 1508.300781 C 921.714844 1493.324219 946.574219 1507.882812 940.378906 1517.453125 C 936.753906 1539.101562 903.960938 1506.453125 902.304688 1526.824219 C 905.046875 1539.300781 888.871094 1528.085938 882.945312 1529.621094 C 874.910156 1517.257812 888.898438 1495.597656 869.71875 1492.351562 C 874.835938 1501.894531 859.433594 1516.019531 856.09375 1502.128906 C 854.703125 1471.21875 792.0625 1485.265625 831.035156 1522.828125 C 813.105469 1514.65625 805.773438 1489.015625 785.414062 1488.390625 C 788.921875 1495.003906 792.171875 1501.753906 795.078125 1508.796875 C 786.011719 1505.976562 780.078125 1497.738281 772.78125 1492.015625 C 777.683594 1508.15625 763.035156 1502.875 752.964844 1503.128906 C 757.679688 1513.808594 763.613281 1523.976562 766.617188 1535.558594 C 751.980469 1525.765625 743.242188 1508.839844 728.972656 1498.207031 C 715.957031 1501.871094 705.703125 1491.003906 694.210938 1487.050781 C 696.429688 1508.90625 712.242188 1525.222656 720.359375 1544.898438 C 704.007812 1542.359375 702.757812 1520.6875 686.054688 1518.121094 C 675.621094 1516.421875 681.027344 1496.40625 668.699219 1499.566406 C 672.433594 1517.777344 684.050781 1533.023438 687.734375 1551.40625 C 675.84375 1547.476562 674.296875 1527.410156 655.976562 1530.136719 C 656.507812 1535.378906 657.746094 1546.035156 658.242188 1551.304688 C 644.558594 1543.6875 641.414062 1526.71875 636.382812 1513.296875 C 619.863281 1515.140625 620.199219 1541.5625 601.582031 1536.71875 C 627.382812 1594.132812 597.570312 1561.960938 584.859375 1551.203125 C 598.460938 1576.949219 560.859375 1584.582031 562.648438 1555.785156 C 549.824219 1563.46875 558.054688 1574.152344 562.898438 1584.359375 C 548.289062 1589.980469 545.214844 1568.304688 532.316406 1570.386719 C 511.832031 1577.535156 517.046875 1551.898438 517.394531 1539.472656 C 498.515625 1544.097656 489.671875 1524.3125 479.085938 1513.027344 C 483.886719 1511.539062 493.53125 1508.289062 498.246094 1506.660156 C 488.230469 1492.378906 487.371094 1479.898438 503.757812 1470.984375 C 500.191406 1446.976562 495.652344 1423.519531 513.167969 1404.492188 C 531.101562 1404.871094 546.910156 1396.222656 556.800781 1385.378906 C 567.609375 1364.625 544.347656 1351.515625 537.863281 1334.222656 C 554.738281 1327.378906 558.226562 1349.316406 569.253906 1357.039062 C 547.675781 1279.191406 565.027344 1340.066406 586.632812 1331.199219 C 606.101562 1326.296875 567.484375 1352.355469 588.246094 1344.398438 C 610.863281 1344.105469 600.894531 1315.128906 601.636719 1300.589844 C 619.019531 1292.804688 620.679688 1318.390625 628.476562 1328.226562 C 652.121094 1330.742188 624.996094 1299.089844 644.703125 1291.613281 C 652.011719 1298.082031 654.28125 1314.226562 665.535156 1313.710938 C 679.304688 1309.113281 680.464844 1322.261719 683.941406 1332.046875 C 692.558594 1307.488281 689.203125 1277.085938 700.960938 1252.304688 C 716.824219 1241.859375 717.726562 1260.429688 709.199219 1269.449219 C 685.503906 1301.960938 717.691406 1337.167969 726.179688 1370.027344 C 742.15625 1361.976562 709.792969 1329.941406 719.683594 1310.519531 C 727.269531 1293.847656 726.320312 1274.507812 737.800781 1259.617188 C 741.089844 1246.636719 759.355469 1245.507812 763.28125 1258.628906 C 753.507812 1269.347656 731.980469 1279.085938 746.769531 1295.542969 C 762.988281 1312.695312 711.792969 1300.011719 730.289062 1319.265625 C 757.382812 1323.394531 769.503906 1350.386719 782.371094 1371.664062 C 785.308594 1371.441406 791.144531 1370.917969 794.039062 1370.714844 C 790.679688 1350.582031 782.882812 1331.269531 776.898438 1312.085938 C 777.664062 1294.058594 785.542969 1274.722656 778.304688 1257.125 C 786.316406 1254.664062 794.628906 1252.886719 802.882812 1251.816406 C 820.699219 1300.628906 829.539062 1351.613281 842.261719 1401.746094 C 845.234375 1401.027344 851.121094 1399.496094 854.0625 1398.828125 C 851.449219 1373.988281 851.621094 1349.300781 853.429688 1324.605469 C 850.425781 1326.425781 844.308594 1330.378906 841.230469 1332.261719 C 835.492188 1310.1875 818.90625 1233.691406 847.742188 1297.324219 C 866.414062 1346.710938 907.140625 1386.285156 915.121094 1438.886719 C 938.890625 1450.550781 952.089844 1475.332031 970.226562 1493.824219 C 979.933594 1464.964844 957.804688 1460.605469 944.289062 1447.84375 C 944.484375 1420.519531 920.769531 1404.078125 903.664062 1386.460938 C 901.175781 1364.5625 881.984375 1352.191406 875.628906 1332.882812 C 869.683594 1321.019531 887.648438 1311.039062 879.515625 1299.589844 C 869.46875 1283.769531 886.101562 1266.511719 879.28125 1249.675781 C 870.441406 1252.019531 861.703125 1261.777344 852.761719 1254.105469 C 856.386719 1229.839844 878.207031 1221.921875 899.523438 1218.574219 C 902.019531 1230.0625 907.09375 1252.765625 909.625 1264.144531 C 924.316406 1266.582031 905.3125 1234.878906 916.679688 1244.660156 C 941.453125 1262.175781 947.359375 1293.832031 959.03125 1319.867188 C 970.566406 1342.816406 985.03125 1364.152344 993.320312 1388.714844 C 1010.671875 1407.230469 1024.421875 1428.265625 1039.25 1448.6875 C 1042.25 1448.566406 1047.980469 1448.453125 1050.878906 1448.351562 C 1017.898438 1405.722656 995.804688 1355.65625 980.144531 1304.0625 C 952.445312 1243.070312 974.621094 1273.765625 987.707031 1282.039062 C 981.167969 1254.9375 1007.078125 1285.246094 1020.769531 1275.699219 C 1013.691406 1267.210938 1014.03125 1259.105469 1023.628906 1253.03125 C 1032.960938 1267.113281 1021.789062 1320.882812 1046.71875 1302.199219 C 1062.851562 1291.578125 1034.5 1284.992188 1034.589844 1272.085938 C 1053.699219 1264.027344 1056.96875 1290.933594 1065.859375 1302.167969 C 1078.960938 1335.507812 1110.78125 1355.902344 1132.269531 1383.578125 C 1132.398438 1369.210938 1126.171875 1349.226562 1138.949219 1339.21875 C 1140.351562 1349.941406 1138.988281 1361.039062 1140.011719 1371.84375 C 1158.019531 1376.628906 1175.75 1389.835938 1194.898438 1383.414062 C 1188.449219 1365.117188 1196.589844 1362.039062 1212.960938 1365.914062 C 1216.289062 1343.046875 1186.390625 1365.648438 1187.441406 1343.601562 C 1176.121094 1325.226562 1183.128906 1358.351562 1184.660156 1365.519531 C 1176.988281 1359.632812 1170.859375 1351.175781 1161.210938 1348.175781 C 1164.359375 1354.757812 1167.621094 1361.523438 1171.03125 1368.15625 C 1153.699219 1378.765625 1147.601562 1340.902344 1165.089844 1339.636719 C 1160 1332.359375 1154.179688 1325.636719 1149.378906 1318.300781 C 1154.949219 1311.4375 1158.390625 1297.964844 1169.691406 1300.578125 C 1181.859375 1312.039062 1192.03125 1337.289062 1209.148438 1317.550781 C 1177.570312 1284.550781 1162.898438 1239.386719 1129.96875 1207.316406 C 1105.339844 1215.976562 1099.269531 1169.222656 1111.558594 1151.773438 C 1117.789062 1172.40625 1129.121094 1192.015625 1146.988281 1204.90625 C 1159.789062 1208.488281 1172.839844 1212.121094 1183.238281 1220.824219 C 1184.910156 1202.464844 1166.808594 1204.796875 1162.070312 1191.355469 C 1183.808594 1200.519531 1174.539062 1180.03125 1171.179688 1166.738281 C 1169.71875 1184.996094 1154.191406 1184.015625 1140.101562 1180.457031 C 1151.269531 1169.042969 1154.960938 1153.199219 1153.519531 1137.71875 C 1168.328125 1129.535156 1171.019531 1150.789062 1177.261719 1159.710938 C 1200.25 1214.644531 1225.511719 1268.703125 1254 1320.90625 C 1259.640625 1329.003906 1266.179688 1337.71875 1276.601562 1339.609375 C 1261.21875 1285.078125 1219.648438 1239.875 1198.660156 1190.367188 C 1201.839844 1176.027344 1195.5 1163.253906 1189.570312 1150.753906 C 1179.640625 1136.898438 1214.269531 1146.890625 1205.699219 1132.707031 C 1207.449219 1109.679688 1188.179688 1125.5 1186.171875 1138.214844 C 1179.179688 1119.484375 1186.28125 1100.699219 1189.808594 1082.199219 C 1208.25 1094.238281 1230.488281 1098.371094 1242.089844 1119.265625 C 1238.738281 1107.019531 1247.410156 1099.808594 1258.871094 1103.609375 C 1265.539062 1115.875 1287.511719 1114.421875 1283.308594 1131.421875 C 1295 1129.027344 1299.101562 1116.960938 1304.269531 1107.699219 C 1291.269531 1109.171875 1279.5 1105.460938 1268.78125 1098.578125 C 1252.019531 1092.949219 1224.691406 1089.609375 1232.640625 1065.339844 C 1229.488281 1047.429688 1253.988281 1077.851562 1255.300781 1063.191406 C 1260.71875 1051.351562 1248.25 1021.960938 1270.140625 1025.371094 C 1278.269531 1036.089844 1291.148438 1040.039062 1302.460938 1046.230469 C 1313.53125 1063.859375 1327.550781 1079.988281 1336.179688 1099.019531 C 1354.019531 1108.191406 1337.640625 1176.5 1370.339844 1160.84375 C 1354.960938 1121.789062 1339.351562 1082.578125 1320.238281 1045.398438 C 1312.878906 1035.519531 1296.101562 1015.210938 1317.859375 1011.808594 C 1297.269531 1000.578125 1304.5 974.570312 1292.910156 956.601562 C 1305.5 954.621094 1320.398438 958.558594 1327.640625 945.390625 C 1333.078125 933.441406 1366.410156 953.191406 1353.371094 935.359375 C 1349.011719 912.511719 1398.070312 924.21875 1385.46875 897.078125 C 1412.128906 888.398438 1438.96875 878.390625 1466.710938 874.898438 C 1497.910156 868.199219 1523.710938 890.648438 1535.691406 917.671875 Z M 1258.601562 1087.601562 C 1272.789062 1081.171875 1300.421875 1083.761719 1287.21875 1061.210938 C 1269.640625 1061.058594 1257.148438 1068.960938 1258.601562 1087.601562 Z M 896.246094 1299.71875 C 910.746094 1306.226562 927.027344 1300.546875 920.460938 1282.074219 C 909.101562 1283.058594 897.304688 1286.410156 896.246094 1299.71875 Z M 1259.011719 1218.082031 C 1275.03125 1248.5625 1296.921875 1284.390625 1323.679688 1301.621094 C 1315.308594 1268.550781 1278.378906 1250.601562 1270.011719 1217.070312 C 1267.210938 1217.265625 1261.769531 1217.792969 1259.011719 1218.082031 Z M 562.445312 1446.949219 C 574.726562 1436.644531 582.167969 1423.992188 567.113281 1412.199219 C 546.550781 1408.046875 569.96875 1434.46875 562.445312 1446.949219 Z M 1052.371094 1322.390625 C 1057.441406 1353.140625 1066.300781 1397.324219 1098.609375 1411.023438 C 1084.511719 1382.859375 1073.078125 1352.746094 1058.011719 1324.050781 Z M 754.628906 1441.328125 C 769.171875 1433.046875 766.503906 1406.414062 750.554688 1402.496094 C 739.976562 1401.476562 758.417969 1429.527344 754.628906 1441.328125 Z M 830.40625 1438.140625 C 851.472656 1427.15625 820.441406 1415.8125 818.964844 1400.84375 C 793.050781 1400.035156 825.8125 1426.800781 830.40625 1438.140625 Z M 940.34375 1380.605469 C 954.683594 1415.425781 969.085938 1459.046875 1002.449219 1479.480469 C 998.894531 1470.488281 994.136719 1462.164062 990.246094 1453.5 C 998.015625 1456.242188 1005.5 1459.839844 1013.289062 1462.636719 C 1011.449219 1440.5 979.023438 1448.4375 972.359375 1429.296875 C 965.621094 1412.441406 957.273438 1396.226562 946.128906 1381.976562 Z M 1311.210938 1337.003906 C 1318.308594 1338.261719 1325.421875 1339.457031 1332.558594 1340.648438 C 1327.230469 1330.050781 1321.738281 1318.210938 1310.511719 1313.148438 C 1298.5 1306.96875 1311.191406 1330.960938 1311.210938 1337.003906 Z M 1170.039062 1412.207031 C 1193.089844 1399.269531 1155.640625 1389.015625 1144.511719 1383.503906 C 1134.25 1379.4375 1156.289062 1427.382812 1170.039062 1412.207031 Z M 1101.320312 1428.109375 C 1110.859375 1422.203125 1120.121094 1426.625 1129.160156 1430.746094 C 1132.289062 1416.703125 1137.121094 1392.039062 1114.839844 1396.035156 C 1105.289062 1398.773438 1104.578125 1417.972656 1101.320312 1428.109375 Z M 888.699219 1514.886719 C 904.257812 1518.382812 909.859375 1491.429688 893.171875 1488.945312 C 885.265625 1492.882812 887.910156 1507.507812 888.699219 1514.886719 "/>
</svg>
